<?xml version="1.0" encoding="UTF-8" standalone="no"?>
<svg
   xmlns:dc="http://purl.org/dc/elements/1.1/"
   xmlns:cc="http://creativecommons.org/ns#"
   xmlns:rdf="http://www.w3.org/1999/02/22-rdf-syntax-ns#"
   xmlns:svg="http://www.w3.org/2000/svg"
   xmlns="http://www.w3.org/2000/svg"
   xmlns:sodipodi="http://sodipodi.sourceforge.net/DTD/sodipodi-0.dtd"
   xmlns:inkscape="http://www.inkscape.org/namespaces/inkscape"
   version="1.1"
   id="svg4331"
   x="0px"
   y="0px"
   viewBox="0 0 244.16586 186.96501"
   xml:space="preserve"
   sodipodi:docname="logo.svg"
   width="244.16586"
   height="186.96501"
   inkscape:export-filename="/Users/McHorn/Documents/FunChlam/FunChlam/assets/images/logo.png"
   inkscape:export-xdpi="14.611683"
   inkscape:export-ydpi="14.611683"
   inkscape:version="1.0.2 (e86c8708, 2021-01-15)"><metadata
   id="metadata918"><rdf:RDF><cc:Work
       rdf:about=""><dc:format>image/svg+xml</dc:format><dc:type
         rdf:resource="http://purl.org/dc/dcmitype/StillImage" /><dc:title></dc:title></cc:Work></rdf:RDF></metadata><defs
   id="defs916" /><sodipodi:namedview
   pagecolor="#ffffff"
   bordercolor="#666666"
   borderopacity="1"
   objecttolerance="10"
   gridtolerance="10"
   guidetolerance="10"
   inkscape:pageopacity="0"
   inkscape:pageshadow="2"
   inkscape:window-width="1280"
   inkscape:window-height="800"
   id="namedview914"
   showgrid="false"
   fit-margin-top="0.3"
   fit-margin-left="0.3"
   fit-margin-right="0.3"
   fit-margin-bottom="0.3"
   inkscape:zoom="2.0683641"
   inkscape:cx="112.79308"
   inkscape:cy="55.289637"
   inkscape:window-x="0"
   inkscape:window-y="0"
   inkscape:window-maximized="0"
   inkscape:current-layer="svg4331" />
<style
   type="text/css"
   id="style833">
	.st0{fill:none;stroke:#000000;stroke-width:0.8;stroke-miterlimit:3.2;}
	.st1{fill-rule:evenodd;clip-rule:evenodd;fill:#D5E5FF;}
	
		.st2{fill-rule:evenodd;clip-rule:evenodd;fill:#CCCCCC;stroke:#B5B2B2;stroke-width:2.4;stroke-linejoin:round;stroke-miterlimit:3.2;}
	.st3{fill:#B5B2B2;stroke:#B5B2B2;stroke-width:2.4;stroke-linejoin:round;stroke-miterlimit:3.2;}
	.st4{fill-rule:evenodd;clip-rule:evenodd;fill:#F2F2F2;stroke:#B5B2B2;stroke-width:1.6;stroke-miterlimit:3.2;}
	.st5{fill-rule:evenodd;clip-rule:evenodd;fill:#E9AFAF;stroke:#767171;stroke-width:0.8;stroke-miterlimit:3.2;}
	.st6{fill-rule:evenodd;clip-rule:evenodd;fill:#ABD8CA;stroke:#767171;stroke-width:0.8;stroke-miterlimit:3.2;}
	.st7{fill:#999999;fill-opacity:0;}
</style>
<path
   id="path5249"
   class="st0"
   d="M -208.16923,168.01838" />
<path
   id="path5261"
   class="st0"
   d="m 317.13077,492.01838 v 0" />
<path
   id="path5549"
   class="st1"
   d="M -260.66923,-276.28162" />
<g
   id="flowRoot4595"
   transform="translate(-25.56923,324.3861)">
</g>
<g
   id="flowRoot4609"
   transform="translate(-184.14066,332.10039)">
</g>
<g
   id="flowRoot4629"
   transform="translate(20.71648,523.52896)">
</g>
<g
   id="flowRoot4637"
   transform="translate(-28.42637,269.52896)">
</g>
<g
   id="flowRoot4655"
   transform="translate(11.57363,332.3861)">
</g>
<g
   id="flowRoot4667"
   transform="translate(23.0022,295.24324)">
</g>
<g
   id="flowRoot4675"
   transform="translate(-25.56923,272.3861)">
</g>
<g
   id="flowRoot4691"
   transform="translate(24.43077,296.3861)">
</g>
<g
   id="flowRoot4703"
   transform="translate(64.43077,267.81467)">
</g>
<g
   id="flowRoot4729"
   transform="translate(-49.85494,322.95753)">
</g>
<g
   id="flowRoot4743"
   transform="translate(186.57009,371.04086)">
</g>
<g
   id="flowRoot4759"
   transform="translate(-210.42637,471.24324)">
</g>
<g
   id="flowRoot4767"
   transform="translate(147.26201,541.87059)">
</g>
<g
   id="flowRoot4775"
   transform="translate(-35.56923,333.24324)">
</g>
<g
   id="flowRoot4787"
   transform="translate(-1.5692296,290.95753)">
</g>
<g
   id="flowRoot4799"
   transform="translate(20.14506,282.3861)">
</g>
<g
   id="flowRoot4807"
   transform="translate(-32.65071,556.62495)">
</g>
<g
   id="flowRoot4819"
   transform="translate(225.495,565.17883)">
</g>
<g
   id="flowRoot4827"
   transform="translate(-15.56923,302.3861)">
</g>
<g
   id="flowRoot5254"
   transform="translate(-148.4601,294.48661)">
</g>
<g
   id="g876"
   transform="translate(-15.56923,-5.8816157)">
	<path
   id="path5083"
   class="st0"
   d="m 82.8,86.6 c 0.6,-0.9 0,0 0,0 z" />
	<path
   id="path5056"
   class="st2"
   d="m 93.7,84.9 c 4.5,-3.5 9.5,-8.1 15.1,-10.8 5.5,-1.1 11.8,-0.5 15.2,4.5 4.3,3.1 5.3,8.5 8.4,12.5 3.9,5.9 11.6,8.2 14.9,14.6 2.3,5.7 -0.8,13.5 -7.3,14.4 -5,4 -11,8.5 -10.9,15.6 -0.2,5.9 0.7,12.6 -4.4,16.8 -3.2,4.2 -7.8,6.8 -12.7,8.5 -5.3,1.9 -12.3,4.1 -16.5,-1.2 -5.8,-4.3 -10.7,-9.8 -16,-14.7 -5.2,-4.1 -12.3,-3.8 -18.5,-4.8 -6.1,-0.1 -12.2,1.1 -18.3,0.9 -6,0.1 -13.5,1.8 -18.1,-3.2 -5.9,-2.7 -8.5,-9.8 -7.2,-15.9 1.1,-6.7 3.9,-13 4.8,-19.7 2.2,-5.5 2.7,-11.7 6.4,-16.5 3.3,-4.5 9.2,-7.5 14.7,-5.3 6.9,0.8 12.1,6 18.5,8.1 5.3,3.2 11.3,1.3 16.9,0.8 5.6,0 9.8,-3.6 15,-4.6 z" />
	<path
   id="path5060"
   class="st3"
   d="m 65,100.9 c 1.1,4.1 -2.6,8 -8.4,8.8 -5.8,0.8 -11.4,-1.7 -12.7,-5.7 -1.3,-4 2.2,-8.1 7.9,-9.1 5.7,-1 11.5,1.4 13.1,5.4 l -10.4,2 z" />
	<path
   id="path5075"
   class="st4"
   d="m 128.9,106.5 c 2.2,11 -5.5,21.6 -17.3,23.7 -11.8,2.1 -23.2,-5.1 -25.5,-16.1 -2.3,-11 5.4,-21.7 17.2,-23.8 11.8,-2.1 23.2,5 25.5,16" />
	<path
   id="path5147"
   class="st5"
   d="m 125.8,112.3 c 0.4,2.2 -1,4.3 -3.2,4.7 -2.2,0.4 -4.3,-1 -4.7,-3.2 -0.4,-2.2 1,-4.3 3.2,-4.7 2.1,-0.5 4.2,1 4.7,3.2" />
	<path
   id="path5266"
   class="st5"
   d="m 125.8,102.7 c 0.4,2.2 -1,4.3 -3.2,4.7 -2.2,0.4 -4.3,-1 -4.7,-3.2 -0.4,-2.2 1,-4.3 3.2,-4.7 2.1,-0.5 4.2,1 4.7,3.2" />
	<path
   id="path5268"
   class="st5"
   d="m 117.8,107.5 c 0.4,2.2 -1,4.3 -3.2,4.7 -2.2,0.4 -4.3,-1 -4.7,-3.2 -0.4,-2.2 1,-4.3 3.2,-4.7 2.1,-0.5 4.2,1 4.7,3.2" />
	<path
   id="path5270"
   class="st5"
   d="m 122.6,120.3 c 0.4,2.2 -1,4.3 -3.2,4.7 -2.2,0.4 -4.3,-1 -4.7,-3.2 -0.4,-2.2 1,-4.3 3.2,-4.7 2.1,-0.5 4.2,1 4.7,3.2" />
	<path
   id="path5272"
   class="st5"
   d="m 114.6,123.5 c 0.4,2.2 -1,4.3 -3.2,4.7 -2.2,0.4 -4.3,-1 -4.7,-3.2 -0.4,-2.2 1,-4.3 3.2,-4.7 2.1,-0.5 4.2,1 4.7,3.2" />
	<path
   id="path5274"
   class="st5"
   d="m 113,115.5 c 0.4,2.2 -1,4.3 -3.2,4.7 -2.2,0.4 -4.3,-1 -4.7,-3.2 -0.4,-2.2 1,-4.3 3.2,-4.7 2.1,-0.5 4.2,1 4.7,3.2" />
	<path
   id="path5276"
   class="st5"
   d="m 105,121.9 c 0.4,2.2 -1,4.3 -3.2,4.7 -2.2,0.4 -4.3,-1 -4.7,-3.2 -0.4,-2.2 1,-4.3 3.2,-4.7 2.1,-0.5 4.2,1 4.7,3.2" />
	<path
   id="path5278"
   class="st5"
   d="m 97,117.1 c 0.4,2.2 -1,4.3 -3.2,4.7 -2.2,0.4 -4.3,-1 -4.7,-3.2 -0.4,-2.2 1,-4.3 3.2,-4.7 2.1,-0.5 4.2,1 4.7,3.2" />
	<path
   id="path5280"
   class="st5"
   d="m 95.4,107.5 c 0.4,2.2 -1,4.3 -3.2,4.7 -2.2,0.4 -4.3,-1 -4.7,-3.2 -0.4,-2.2 1,-4.3 3.2,-4.7 2.1,-0.5 4.2,1 4.7,3.2" />
	<path
   id="path5282"
   class="st5"
   d="m 105,109.1 c 0.4,2.2 -1,4.3 -3.2,4.7 -2.2,0.4 -4.3,-1 -4.7,-3.2 -0.4,-2.2 1,-4.3 3.2,-4.7 2.1,-0.5 4.2,1 4.7,3.2" />
	<path
   id="path5284"
   class="st5"
   d="m 100.2,99.5 c 0.4,2.2 -1,4.3 -3.2,4.7 -2.2,0.4 -4.3,-1 -4.7,-3.2 -0.4,-2.2 1,-4.3 3.2,-4.7 2.1,-0.5 4.2,1 4.7,3.2" />
	<path
   id="path5286"
   class="st5"
   d="m 111.4,102.7 c 0.4,2.2 -1,4.3 -3.2,4.7 -2.2,0.4 -4.3,-1 -4.7,-3.2 -0.4,-2.2 1,-4.3 3.2,-4.7 2.1,-0.5 4.2,1 4.7,3.2" />
	<path
   id="path5288"
   class="st5"
   d="m 117.8,96.3 c 0.4,2.2 -1,4.3 -3.2,4.7 -2.2,0.4 -4.3,-1 -4.7,-3.2 -0.4,-2.2 1,-4.3 3.2,-4.7 2.1,-0.5 4.2,1 4.7,3.2" />
	<path
   id="path5290"
   class="st5"
   d="m 109.8,94.7 c 0.4,2.2 -1,4.3 -3.2,4.7 -2.2,0.4 -4.3,-1 -4.7,-3.2 -0.4,-2.2 1,-4.3 3.2,-4.7 2.1,-0.5 4.2,1 4.7,3.2" />
</g>
<g
   id="flowRoot5389"
   transform="translate(-121.56923,304.3861)">
</g>
<g
   id="flowRoot5417"
   transform="translate(-72.01288,291.65817)">
</g>
<g
   id="flowRoot5427"
   transform="translate(-148.09614,316.63914)">
</g>
<g
   id="flowRoot5712"
   transform="matrix(1.0205057,0,0,1,-23.20061,292.3861)">
</g>
<g
   id="flowRoot5632"
   transform="translate(763.34927,570.62495)">
</g>
<g
   id="g897"
   transform="translate(-15.56923,-5.8816157)">
	<path
   id="path5083_00000059276891369047617780000006973304301429011075_"
   class="st0"
   d="m 198.4,54 c 1,-0.3 0,0 0,0 z" />
	<path
   id="path5056_00000103238801910753407910000017137377469887132065_"
   class="st2"
   d="m 234.7,39.6 c 5.8,-1.7 12.9,-4.3 18.4,-4.6 4,1.4 6.9,5.1 3.9,12.2 -0.7,5.4 -5.2,11.7 -7.3,17.6 -3.5,8.3 -1.5,14.4 -5.8,22.9 -4.2,7.3 -13.3,14.4 -17.7,12.3 -6.5,1.9 -14,4.1 -20.7,11.8 -5.7,6.3 -11.6,14 -18.4,16.2 -5.7,3.1 -10.7,3.7 -15,3.2 -4.7,-0.4 -10.5,-1.4 -7.8,-9.1 1,-7.4 3.5,-15.7 5.3,-23.6 1.1,-7 -3,-9.9 -5.5,-14 -3.2,-3 -7.7,-4.5 -10.7,-7.7 -3.4,-2.7 -9.1,-4.4 -6.7,-12 -0.6,-5.8 4.7,-14.7 11.3,-20.7 6.9,-6.8 14.4,-12.3 21.3,-19.2 6.4,-5 12.6,-11.5 19.2,-15 6,-3.3 12.1,-3.8 12.9,1.2 2.9,4.1 0.8,12.2 2.4,17.6 -0.2,5.9 4.9,6.7 8.4,8.9 3,2.5 8.7,0.7 12.5,2 z" />
	<path
   id="path5060_00000107550787865478081680000011856837243915271350_"
   class="st3"
   d="m 212.8,48.4 c -1.9,3.8 -7.2,4.3 -12.1,1.1 -4.9,-3.1 -7.5,-8.8 -5.8,-12.7 1.7,-3.9 7,-4.6 11.9,-1.7 4.9,2.9 7.8,8.6 6.3,12.6 l -9.2,-5.3 z" />
	<path
   id="path5075_00000093865821796266536670000016334087633780657816_"
   class="st4"
   d="m 206.4,93.4 c -9.2,6.4 -21.4,5.5 -27.3,-2 -5.9,-7.5 -3.4,-18.8 5.7,-25.2 9.1,-6.4 21.4,-5.6 27.4,1.9 6,7.5 3.5,18.7 -5.6,25.2" />
	<path
   id="path5268_00000067195531174075590380000005012719617224510654_"
   class="st6"
   d="m 206.5,88.8 c -1.1,1.9 -3.6,2.6 -5.5,1.4 -1.9,-1.1 -2.6,-3.6 -1.5,-5.5 1.1,-1.9 3.6,-2.6 5.5,-1.5 2,1.2 2.6,3.6 1.5,5.6" />
	<path
   id="path5274_00000084520717212585267650000006434485750952599971_"
   class="st6"
   d="m 197.6,91.7 c -1.1,1.9 -3.6,2.6 -5.5,1.4 -1.9,-1.1 -2.6,-3.6 -1.5,-5.5 1.1,-1.9 3.6,-2.6 5.5,-1.5 2,1.1 2.7,3.6 1.5,5.6" />
	<path
   id="path5276_00000044863214434240690630000004007988335991676863_"
   class="st6"
   d="m 187.4,91.3 c -1.1,1.9 -3.6,2.6 -5.5,1.4 -1.9,-1.1 -2.6,-3.6 -1.5,-5.5 1.1,-1.9 3.6,-2.6 5.5,-1.5 2,1.1 2.6,3.6 1.5,5.6" />
	<path
   id="path5278_00000039820918364007740010000000354443205080888248_"
   class="st6"
   d="m 184.5,82.4 c -1.1,1.9 -3.6,2.6 -5.5,1.4 -1.9,-1.1 -2.6,-3.6 -1.5,-5.5 1.1,-1.9 3.6,-2.6 5.5,-1.5 2,1.1 2.7,3.6 1.5,5.6" />
	<path
   id="path5280_00000102522834098983721800000001350446434925227942_"
   class="st6"
   d="m 189.6,74.1 c -1.1,1.9 -3.6,2.6 -5.5,1.4 -1.9,-1.1 -2.6,-3.6 -1.5,-5.5 1.1,-1.9 3.6,-2.6 5.5,-1.5 2,1.1 2.7,3.6 1.5,5.6" />
	<path
   id="path5282_00000093174729962868254770000017057795988529864869_"
   class="st6"
   d="m 195.8,81.6 c -1.1,1.9 -3.6,2.6 -5.5,1.4 -1.9,-1.1 -2.6,-3.6 -1.5,-5.5 1.1,-1.9 3.6,-2.6 5.5,-1.5 2,1.2 2.6,3.6 1.5,5.6" />
	<path
   id="path5284_00000029732342371079496070000008664688585600884924_"
   class="st6"
   d="m 198.5,71.2 c -1.1,1.9 -3.6,2.6 -5.5,1.4 -1.9,-1.1 -2.6,-3.6 -1.5,-5.5 1.1,-1.9 3.6,-2.6 5.5,-1.5 2,1.2 2.6,3.6 1.5,5.6" />
	<path
   id="path5286_00000012443819299751418940000006465794437035552447_"
   class="st6"
   d="m 204.8,81 c -1.1,1.9 -3.6,2.6 -5.5,1.4 -1.9,-1.1 -2.6,-3.6 -1.5,-5.5 1.1,-1.9 3.6,-2.6 5.5,-1.5 2,1.1 2.7,3.6 1.5,5.6" />
	<path
   id="path5288_00000165926754611439074590000017108548630231499704_"
   class="st6"
   d="m 213.9,80.4 c -1.1,1.9 -3.6,2.6 -5.5,1.4 -1.9,-1.1 -2.6,-3.6 -1.5,-5.5 1.1,-1.9 3.6,-2.6 5.5,-1.5 1.9,1.1 2.6,3.6 1.5,5.6" />
	<path
   id="path5290_00000081631604988566137510000013336282422898833587_"
   class="st6"
   d="m 208.9,73.9 c -1.1,1.9 -3.6,2.6 -5.5,1.4 -1.9,-1.1 -2.6,-3.6 -1.5,-5.5 1.1,-1.9 3.6,-2.6 5.5,-1.5 1.9,1.1 2.6,3.6 1.5,5.6" />
</g>
<path
   id="path5456"
   class="st7"
   d="m 154.83077,157.91838 c -0.6,-0.2 -1,-1.1 -1,-1.9 0,-1.3 0.8,-1.5 5.3,-1.8 2.9,-0.1 5.3,0 5.3,0.3 0,0.3 -0.7,1.3 -1.6,2.2 -1.6,1.7 -5.5,2.2 -8,1.2 z" />
<path
   id="path5458"
   class="st7"
   d="m 154.83077,157.91838 c -0.6,-0.2 -1,-1.1 -1,-1.9 0,-1.3 0.8,-1.5 5.3,-1.8 2.9,-0.1 5.3,0 5.3,0.3 0,0.3 -0.7,1.3 -1.6,2.2 -1.6,1.7 -5.5,2.2 -8,1.2 z" />
<path
   id="path5056_00000052069335159539748190000008650470828489771174_"
   class="st2"
   d="m 191.23077,131.71838 c 4.7,-2.4 9.9,-5.6 15.5,-7.4 5.4,-0.7 11.5,-0.3 14.3,3.1 3.9,2.2 4.4,5.8 7.1,8.6 3.3,4.1 10.5,5.7 13.1,10 1.7,3.9 -1.9,9.3 -8.3,9.9 -5.2,2.7 -11.3,5.9 -11.8,10.7 -0.7,4.1 -0.4,8.7 -5.7,11.6 -3.4,2.9 -8.1,4.7 -13,5.8 -5.3,1.3 -12.2,2.8 -15.8,-0.8 -5.2,-3 -9.5,-6.7 -14.2,-10.1 -4.7,-2.8 -11.5,-2.6 -17.4,-3.3 -5.9,0 -11.8,0.8 -17.7,0.6 -5.8,0.1 -13.2,1.3 -17.2,-2.2 -5.5,-1.9 -7.4,-6.7 -5.6,-11 1.6,-4.6 4.8,-8.9 6.3,-13.6 2.6,-3.8 3.6,-8.1 7.6,-11.4 3.5,-3.1 9.5,-5.2 14.6,-3.6 6.6,0.6 11.2,4.1 17.2,5.6 4.8,2.2 10.8,0.9 16.3,0.6 5.2,0 9.6,-2.5 14.7,-3.1 z" />
<path
   id="path5060_00000027588478467163858820000007547089630531081360_"
   class="st3"
   d="m 153.43077,151.71838 c 1.1,4.1 -2.6,8 -8.4,8.8 -5.8,0.8 -11.4,-1.7 -12.7,-5.7 -1.3,-4 2.2,-8.1 7.9,-9.1 5.7,-1 11.5,1.4 13.1,5.4 l -10.4,2 z" />
<path
   id="path5075_00000150781233030608112070000010324242951201161373_"
   class="st4"
   d="m 232.33077,146.81838 c 3,6 -7.4,11.8 -23.3,13 -15.9,1.2 -31.2,-2.8 -34.3,-8.8 -3.1,-6 7.3,-11.9 23.1,-13 15.8,-1.1 31.3,2.7 34.4,8.7" />
<path
   id="path5147_00000136400832348946425930000004440260110483554468_"
   class="st5"
   d="m 226.23077,145.11838 c 0.4,2.2 -1,4.3 -3.2,4.7 -2.2,0.4 -4.3,-1 -4.7,-3.2 -0.4,-2.2 1,-4.3 3.2,-4.7 2.2,-0.5 4.3,1 4.7,3.2" />
<path
   id="path5266_00000034059500645265023930000011825468369493759935_"
   class="st5"
   d="m 216.23077,143.51838 c 0.4,2.2 -1,4.3 -3.2,4.7 -2.2,0.4 -4.3,-1 -4.7,-3.2 -0.4,-2.2 1,-4.3 3.2,-4.7 2.2,-0.5 4.3,1 4.7,3.2" />
<path
   id="path5268_00000074437720160055231810000004402291622142748346_"
   class="st5"
   d="m 206.23077,155.31838 c 0.4,2.2 -1,4.3 -3.2,4.7 -2.2,0.4 -4.3,-1 -4.7,-3.2 -0.4,-2.2 1,-4.3 3.2,-4.7 2.2,-0.5 4.3,1 4.7,3.2" />
<path
   id="path5278_00000178900268769939972220000012686728727829480325_"
   class="st5"
   d="m 191.43077,151.91838 c 0.4,2.2 -1,4.3 -3.2,4.7 -2.2,0.4 -4.3,-1 -4.7,-3.2 -0.4,-2.2 1,-4.3 3.2,-4.7 2.2,-0.4 4.3,1 4.7,3.2" />
<path
   id="path5282_00000015316200849700008610000010694591010182260157_"
   class="st5"
   d="m 215.43077,151.91838 c 0.4,2.2 -1,4.3 -3.2,4.7 -2.2,0.4 -4.3,-1 -4.7,-3.2 -0.4,-2.2 1,-4.3 3.2,-4.7 2.2,-0.4 4.3,1 4.7,3.2" />
<path
   id="path5284_00000143605609172124056260000004449255232377860741_"
   class="st5"
   d="m 188.63077,144.31838 c 0.4,2.2 -1,4.3 -3.2,4.7 -2.2,0.4 -4.3,-1 -4.7,-3.2 -0.4,-2.2 1,-4.3 3.2,-4.7 2.2,-0.5 4.3,1 4.7,3.2" />
<path
   id="path5286_00000072962420051498134280000011496334922092486279_"
   class="st5"
   d="m 199.83077,150.51838 c 0.4,2.2 -1,4.3 -3.2,4.7 -2.2,0.4 -4.3,-1 -4.7,-3.2 -0.4,-2.2 1,-4.3 3.2,-4.7 2.2,-0.4 4.3,1 4.7,3.2" />
<path
   id="path5288_00000074430625679273794220000000160860254644894597_"
   class="st5"
   d="m 206.23077,144.11838 c 0.4,2.2 -1,4.3 -3.2,4.7 -2.2,0.4 -4.3,-1 -4.7,-3.2 -0.4,-2.2 1,-4.3 3.2,-4.7 2.2,-0.5 4.3,1 4.7,3.2" />
<path
   id="path5290_00000085938224611791288840000015451088062082647971_"
   class="st5"
   d="m 198.23077,142.51838 c 0.4,2.2 -1,4.3 -3.2,4.7 -2.2,0.4 -4.3,-1 -4.7,-3.2 -0.4,-2.2 1,-4.3 3.2,-4.7 2.2,-0.4 4.3,1 4.7,3.2" />
</svg>
